<mxfile host="app.diagrams.net" agent="Mozilla/5.0 (Windows NT 10.0; Win64; x64) AppleWebKit/537.36 (KHTML, like Gecko) Chrome/132.0.0.0 Safari/537.36" version="26.0.10">
  <diagram name="第 1 页" id="YLMawOQuZpYZf5P0If9z">
    <mxGraphModel dx="1050" dy="530" grid="1" gridSize="10" guides="1" tooltips="1" connect="1" arrows="1" fold="1" page="1" pageScale="1" pageWidth="1169" pageHeight="826" math="0" shadow="0">
      <root>
        <mxCell id="0" />
        <mxCell id="1" parent="0" />
        <mxCell id="F9fymL4T3IqNZoHSbGeY-1" value="使用者瑱入行程" style="rounded=0;whiteSpace=wrap;html=1;" vertex="1" parent="1">
          <mxGeometry x="160" y="80" width="120" height="60" as="geometry" />
        </mxCell>
        <mxCell id="F9fymL4T3IqNZoHSbGeY-6" value="chatgpt生成行程" style="rounded=0;whiteSpace=wrap;html=1;" vertex="1" parent="1">
          <mxGeometry x="380" y="80" width="120" height="60" as="geometry" />
        </mxCell>
        <mxCell id="F9fymL4T3IqNZoHSbGeY-7" value="" style="endArrow=classic;html=1;rounded=0;entryX=0;entryY=0.5;entryDx=0;entryDy=0;exitX=1;exitY=0.5;exitDx=0;exitDy=0;" edge="1" parent="1" source="F9fymL4T3IqNZoHSbGeY-1" target="F9fymL4T3IqNZoHSbGeY-6">
          <mxGeometry width="50" height="50" relative="1" as="geometry">
            <mxPoint x="280" y="120" as="sourcePoint" />
            <mxPoint x="330" y="70" as="targetPoint" />
          </mxGeometry>
        </mxCell>
        <mxCell id="F9fymL4T3IqNZoHSbGeY-8" value="" style="endArrow=classic;html=1;rounded=0;" edge="1" parent="1">
          <mxGeometry width="50" height="50" relative="1" as="geometry">
            <mxPoint x="500" y="110" as="sourcePoint" />
            <mxPoint x="580" y="110" as="targetPoint" />
          </mxGeometry>
        </mxCell>
        <mxCell id="F9fymL4T3IqNZoHSbGeY-9" value="整數規劃排成" style="rounded=0;whiteSpace=wrap;html=1;" vertex="1" parent="1">
          <mxGeometry x="585" y="80" width="120" height="60" as="geometry" />
        </mxCell>
        <mxCell id="F9fymL4T3IqNZoHSbGeY-11" value="" style="endArrow=none;dashed=1;html=1;dashPattern=1 3;strokeWidth=2;rounded=0;exitX=0.5;exitY=0;exitDx=0;exitDy=0;" edge="1" parent="1" source="F9fymL4T3IqNZoHSbGeY-12">
          <mxGeometry width="50" height="50" relative="1" as="geometry">
            <mxPoint x="160" y="180" as="sourcePoint" />
            <mxPoint x="220" y="140" as="targetPoint" />
          </mxGeometry>
        </mxCell>
        <mxCell id="F9fymL4T3IqNZoHSbGeY-12" value="填入事件疲勞度" style="rounded=0;whiteSpace=wrap;html=1;" vertex="1" parent="1">
          <mxGeometry x="60" y="170" width="70" height="40" as="geometry" />
        </mxCell>
        <mxCell id="F9fymL4T3IqNZoHSbGeY-13" value="" style="endArrow=none;dashed=1;html=1;dashPattern=1 3;strokeWidth=2;rounded=0;exitX=0.5;exitY=0;exitDx=0;exitDy=0;" edge="1" parent="1" source="F9fymL4T3IqNZoHSbGeY-14">
          <mxGeometry width="50" height="50" relative="1" as="geometry">
            <mxPoint x="260" y="180" as="sourcePoint" />
            <mxPoint x="220" y="140" as="targetPoint" />
          </mxGeometry>
        </mxCell>
        <mxCell id="F9fymL4T3IqNZoHSbGeY-14" value="填入事件緊急程度" style="rounded=0;whiteSpace=wrap;html=1;" vertex="1" parent="1">
          <mxGeometry x="140" y="170" width="60" height="40" as="geometry" />
        </mxCell>
        <mxCell id="F9fymL4T3IqNZoHSbGeY-15" value="" style="endArrow=none;dashed=1;html=1;dashPattern=1 3;strokeWidth=2;rounded=0;entryX=0.5;entryY=1;entryDx=0;entryDy=0;" edge="1" parent="1" target="F9fymL4T3IqNZoHSbGeY-1">
          <mxGeometry width="50" height="50" relative="1" as="geometry">
            <mxPoint x="250" y="170" as="sourcePoint" />
            <mxPoint x="280" y="160" as="targetPoint" />
          </mxGeometry>
        </mxCell>
        <mxCell id="F9fymL4T3IqNZoHSbGeY-16" value="填入起始時間跟完成時間" style="rounded=0;whiteSpace=wrap;html=1;" vertex="1" parent="1">
          <mxGeometry x="210" y="170" width="70" height="40" as="geometry" />
        </mxCell>
        <mxCell id="F9fymL4T3IqNZoHSbGeY-17" value="" style="endArrow=none;dashed=1;html=1;dashPattern=1 3;strokeWidth=2;rounded=0;" edge="1" parent="1">
          <mxGeometry width="50" height="50" relative="1" as="geometry">
            <mxPoint x="430" y="170" as="sourcePoint" />
            <mxPoint x="430" y="140" as="targetPoint" />
          </mxGeometry>
        </mxCell>
        <mxCell id="F9fymL4T3IqNZoHSbGeY-18" value="詢問不確定行程，請求chatgpt生成完整計畫" style="rounded=0;whiteSpace=wrap;html=1;" vertex="1" parent="1">
          <mxGeometry x="370" y="170" width="120" height="60" as="geometry" />
        </mxCell>
        <mxCell id="F9fymL4T3IqNZoHSbGeY-19" value="" style="endArrow=none;dashed=1;html=1;dashPattern=1 3;strokeWidth=2;rounded=0;exitX=0.5;exitY=0;exitDx=0;exitDy=0;entryX=0.5;entryY=1;entryDx=0;entryDy=0;" edge="1" parent="1" source="F9fymL4T3IqNZoHSbGeY-20" target="F9fymL4T3IqNZoHSbGeY-9">
          <mxGeometry width="50" height="50" relative="1" as="geometry">
            <mxPoint x="660" y="170" as="sourcePoint" />
            <mxPoint x="660" y="140" as="targetPoint" />
          </mxGeometry>
        </mxCell>
        <mxCell id="F9fymL4T3IqNZoHSbGeY-20" value="約束條件" style="rounded=0;whiteSpace=wrap;html=1;" vertex="1" parent="1">
          <mxGeometry x="610" y="170" width="70" height="40" as="geometry" />
        </mxCell>
        <mxCell id="F9fymL4T3IqNZoHSbGeY-21" value="" style="endArrow=none;dashed=1;html=1;rounded=0;" edge="1" parent="1">
          <mxGeometry width="50" height="50" relative="1" as="geometry">
            <mxPoint x="570" y="260" as="sourcePoint" />
            <mxPoint x="620" y="210" as="targetPoint" />
          </mxGeometry>
        </mxCell>
        <mxCell id="F9fymL4T3IqNZoHSbGeY-22" value="" style="endArrow=none;dashed=1;html=1;dashPattern=1 3;strokeWidth=2;rounded=0;entryX=0.25;entryY=1;entryDx=0;entryDy=0;" edge="1" parent="1" target="F9fymL4T3IqNZoHSbGeY-20">
          <mxGeometry width="50" height="50" relative="1" as="geometry">
            <mxPoint x="620" y="280" as="sourcePoint" />
            <mxPoint x="650" y="210" as="targetPoint" />
          </mxGeometry>
        </mxCell>
        <mxCell id="F9fymL4T3IqNZoHSbGeY-23" value="" style="endArrow=none;dashed=1;html=1;dashPattern=1 3;strokeWidth=2;rounded=0;entryX=0.617;entryY=1.06;entryDx=0;entryDy=0;entryPerimeter=0;" edge="1" parent="1" target="F9fymL4T3IqNZoHSbGeY-20">
          <mxGeometry width="50" height="50" relative="1" as="geometry">
            <mxPoint x="660" y="280" as="sourcePoint" />
            <mxPoint x="680" y="230" as="targetPoint" />
          </mxGeometry>
        </mxCell>
        <mxCell id="F9fymL4T3IqNZoHSbGeY-24" value="" style="endArrow=none;dashed=1;html=1;rounded=0;" edge="1" parent="1">
          <mxGeometry width="50" height="50" relative="1" as="geometry">
            <mxPoint x="710" y="270" as="sourcePoint" />
            <mxPoint x="680" y="210" as="targetPoint" />
          </mxGeometry>
        </mxCell>
        <mxCell id="F9fymL4T3IqNZoHSbGeY-25" value="任務不重疊" style="rounded=0;whiteSpace=wrap;html=1;" vertex="1" parent="1">
          <mxGeometry x="530" y="270" width="50" height="30" as="geometry" />
        </mxCell>
        <mxCell id="F9fymL4T3IqNZoHSbGeY-26" value="時間區段容量限制" style="rounded=0;whiteSpace=wrap;html=1;" vertex="1" parent="1">
          <mxGeometry x="590" y="280" width="50" height="30" as="geometry" />
        </mxCell>
        <mxCell id="F9fymL4T3IqNZoHSbGeY-27" value="固定時間約束&lt;span style=&quot;color: rgba(0, 0, 0, 0); font-family: monospace; font-size: 0px; text-align: start; text-wrap-mode: nowrap;&quot;&gt;%3CmxGraphModel%3E%3Croot%3E%3CmxCell%20id%3D%220%22%2F%3E%3CmxCell%20id%3D%221%22%20parent%3D%220%22%2F%3E%3CmxCell%20id%3D%222%22%20value%3D%22%E4%BB%BB%E5%8B%99%E4%B8%8D%E9%87%8D%E7%96%8A%22%20style%3D%22rounded%3D0%3BwhiteSpace%3Dwrap%3Bhtml%3D1%3B%22%20vertex%3D%221%22%20parent%3D%221%22%3E%3CmxGeometry%20x%3D%22530%22%20y%3D%22270%22%20width%3D%2250%22%20height%3D%2230%22%20as%3D%22geometry%22%2F%3E%3C%2FmxCell%3E%3C%2Froot%3E%3C%2FmxGraphModel%3E&lt;/span&gt;" style="rounded=0;whiteSpace=wrap;html=1;" vertex="1" parent="1">
          <mxGeometry x="650" y="280" width="50" height="30" as="geometry" />
        </mxCell>
        <mxCell id="F9fymL4T3IqNZoHSbGeY-28" value="疲勞度約束" style="rounded=0;whiteSpace=wrap;html=1;" vertex="1" parent="1">
          <mxGeometry x="705" y="270" width="50" height="30" as="geometry" />
        </mxCell>
        <mxCell id="F9fymL4T3IqNZoHSbGeY-29" value="" style="endArrow=none;dashed=1;html=1;rounded=0;" edge="1" parent="1">
          <mxGeometry width="50" height="50" relative="1" as="geometry">
            <mxPoint x="760" y="240" as="sourcePoint" />
            <mxPoint x="680" y="200" as="targetPoint" />
          </mxGeometry>
        </mxCell>
        <mxCell id="F9fymL4T3IqNZoHSbGeY-30" value="任務優先度" style="rounded=0;whiteSpace=wrap;html=1;" vertex="1" parent="1">
          <mxGeometry x="750" y="240" width="50" height="30" as="geometry" />
        </mxCell>
        <mxCell id="F9fymL4T3IqNZoHSbGeY-31" value="" style="endArrow=classic;html=1;rounded=0;" edge="1" parent="1">
          <mxGeometry width="50" height="50" relative="1" as="geometry">
            <mxPoint x="700" y="110" as="sourcePoint" />
            <mxPoint x="780" y="110" as="targetPoint" />
          </mxGeometry>
        </mxCell>
        <mxCell id="F9fymL4T3IqNZoHSbGeY-32" value="生成排成" style="rounded=0;whiteSpace=wrap;html=1;" vertex="1" parent="1">
          <mxGeometry x="780" y="80" width="120" height="60" as="geometry" />
        </mxCell>
      </root>
    </mxGraphModel>
  </diagram>
</mxfile>
